<?xml version="1.0" encoding="UTF-8"?>
<svg width="10px" height="34px" viewBox="0 0 10 34" version="1.1" xmlns="http://www.w3.org/2000/svg" xmlns:xlink="http://www.w3.org/1999/xlink">
    <!-- Generator: Sketch 54 (76480) - https://sketchapp.com -->
    <title>Line</title>
    <desc>Created with Sketch.</desc>
    <g id="Page-1" stroke="none" stroke-width="1" fill="none" fill-rule="evenodd">
        <g id="iPhone-8" transform="translate(-81.000000, -366.000000)" fill="#000000" fill-rule="nonzero">
            <path id="Line" d="M85.5,391 L85.5,375.22237 L82.0368599,375.22237 C81.7403604,375.22237 81.5,374.98201 81.5,374.68551 C81.5,374.602165 81.5194048,374.519965 81.5566778,374.445419 L85.5197591,366.519257 C85.6523577,366.254059 85.974835,366.146567 86.2400322,366.279166 C86.3439293,366.331114 86.4281747,366.41536 86.4801233,366.519257 L90.4432046,374.445419 C90.5758032,374.710617 90.4683108,375.033094 90.2031136,375.165692 C90.1285676,375.202965 90.0463674,375.22237 89.9630225,375.22237 L86.5,375.22237 L86.5,391 L89.9630225,391 C90.0463674,391 90.1285676,391.019405 90.2031136,391.056678 C90.4683108,391.189276 90.5758032,391.511754 90.4432046,391.776951 L86.4801233,399.703114 C86.4281747,399.807011 86.3439293,399.891256 86.2400322,399.943205 C85.974835,400.075803 85.6523577,399.968311 85.5197591,399.703114 L81.5566778,391.776951 C81.5194048,391.702405 81.5,391.620205 81.5,391.53686 C81.5,391.24036 81.7403604,391 82.0368599,391 L85.5,391 Z"></path>
        </g>
    </g>
</svg>