<?xml version="1.0" encoding="UTF-8"?>
<svg width="39px" height="9px" viewBox="0 0 39 9" version="1.1" xmlns="http://www.w3.org/2000/svg" xmlns:xlink="http://www.w3.org/1999/xlink">
    <!-- Generator: Sketch 54 (76480) - https://sketchapp.com -->
    <title>Line</title>
    <desc>Created with Sketch.</desc>
    <g id="Page-1" stroke="none" stroke-width="1" fill="none" fill-rule="evenodd">
        <g id="iPhone-8" transform="translate(-85.000000, -395.000000)" fill="#000000" fill-rule="nonzero">
            <path id="Line" d="M94.5,399 L114.248735,399 L114.248735,395.53686 C114.248735,395.24036 114.489095,395 114.785595,395 C114.86894,395 114.95114,395.019405 115.025686,395.056678 L122.951849,399.019759 C123.217046,399.152358 123.324538,399.474835 123.19194,399.740032 C123.139991,399.843929 123.055746,399.928175 122.951849,399.980123 L115.025686,403.943205 C114.760489,404.075803 114.438011,403.968311 114.305413,403.703114 C114.26814,403.628568 114.248735,403.546367 114.248735,403.463023 L114.248735,400 L94.5,400 L94.5,403.463023 C94.5,403.546367 94.4805952,403.628568 94.4433222,403.703114 C94.3107236,403.968311 93.9882463,404.075803 93.7230491,403.943205 L85.7968864,399.980123 C85.6929893,399.928175 85.608744,399.843929 85.5567954,399.740032 C85.4241968,399.474835 85.5316892,399.152358 85.7968864,399.019759 L93.7230491,395.056678 C93.797595,395.019405 93.8797953,395 93.9631401,395 C94.2596396,395 94.5,395.24036 94.5,395.53686 L94.5,399 Z"></path>
        </g>
    </g>
</svg>