<?xml version="1.0" encoding="UTF-8"?>
<svg width="512px" height="512px" viewBox="0 0 512 512" version="1.1" xmlns="http://www.w3.org/2000/svg" xmlns:xlink="http://www.w3.org/1999/xlink">
    <!-- Generator: Sketch 54 (76480) - https://sketchapp.com -->
    <title>verified</title>
    <desc>Created with Sketch.</desc>
    <g id="Page-1" stroke="none" stroke-width="1" fill="none" fill-rule="evenodd">
        <g id="verified" fill-rule="nonzero">
            <path d="M346.666667,73.7493333 C346.666667,43.9253333 322.709333,19.776 293.184,19.776 L69.4826667,19.776 C39.936,19.776 16,43.9466667 16,73.7493333 L16,378.026667 C16,407.850667 39.9573333,432 69.4826667,432 L307.754667,432 C329.237333,432 346.666667,414.421333 346.666667,392.746667 L346.666667,73.7493333 Z" id="Path" fill="#ECEFF1"></path>
            <circle id="Oval" fill="#90A4AE" cx="181.333333" cy="106.666667" r="38.4"></circle>
            <path d="M243.733333,251.733333 L118.933333,251.733333 C110.976,251.733333 104.533333,245.290667 104.533333,237.333333 L104.533333,227.733333 C104.533333,198.613333 128.213333,174.933333 157.333333,174.933333 L205.333333,174.933333 C234.453333,174.933333 258.133333,198.613333 258.133333,227.733333 L258.133333,237.333333 C258.133333,245.290667 251.690667,251.733333 243.733333,251.733333 Z" id="Path" fill="#90A4AE"></path>
            <path d="M373.333333,498.133333 C304.512,498.133333 248.533333,442.154667 248.533333,373.333333 C248.533333,304.512 304.512,248.533333 373.333333,248.533333 C442.154667,248.533333 498.133333,304.512 498.133333,373.333333 C498.133333,442.154667 442.154667,498.133333 373.333333,498.133333 Z" id="Path" fill="#E3290E"></path>
            <g id="close" transform="translate(314.000000, 314.000000)" fill="#FFFFFF">
                <path d="M115.692833,96.2272694 L23.215531,3.74490515 C19.1823394,-0.288507222 12.6435279,-0.288507222 8.61663814,3.74490515 L3.74277812,8.61146919 C-0.290413454,12.6461419 -0.290413454,19.1853121 3.74277812,23.212422 L96.2200796,115.694787 C100.254532,119.728199 106.793343,119.728199 110.820233,115.694787 L115.686531,110.828222 C119.727285,106.801112 119.727285,100.260682 115.692833,96.2272694 L115.692833,96.2272694 Z" id="Path"></path>
                <path d="M96.2194424,3.74398471 L3.74275793,96.2270894 C-0.290406727,100.260534 -0.290406727,106.801017 3.74275793,110.828159 L8.60902309,115.694762 C12.6434484,119.728207 19.1822162,119.728207 23.2090792,115.694762 L115.692066,23.2179599 C119.726491,19.1845152 119.726491,12.6452927 115.692066,8.61815058 L110.8258,3.75154726 C106.792636,-0.289459949 100.253868,-0.289459949 96.2194424,3.74398471 Z" id="Path"></path>
            </g>
            <path d="M197.333333,320 L101.333333,320 C92.5013333,320 85.3333333,312.832 85.3333333,304 C85.3333333,295.168 92.5013333,288 101.333333,288 L197.333333,288 C206.165333,288 213.333333,295.168 213.333333,304 C213.333333,312.832 206.165333,320 197.333333,320 Z" id="Path" fill="#000000"></path>
            <path d="M176,384 L101.333333,384 C92.5013333,384 85.3333333,376.832 85.3333333,368 C85.3333333,359.168 92.5013333,352 101.333333,352 L176,352 C184.832,352 192,359.168 192,368 C192,376.832 184.832,384 176,384 Z" id="Path" fill="#000000"></path>
            <path d="M181.333333,149.333333 C157.802667,149.333333 138.666667,130.197333 138.666667,106.666667 C138.666667,83.136 157.802667,64 181.333333,64 C204.864,64 224,83.136 224,106.666667 C224,130.197333 204.864,149.333333 181.333333,149.333333 Z M181.333333,96 C175.445333,96 170.666667,100.778667 170.666667,106.666667 C170.666667,112.554667 175.445333,117.333333 181.333333,117.333333 C187.221333,117.333333 192,112.554667 192,106.666667 C192,100.778667 187.221333,96 181.333333,96 Z" id="Shape" fill="#000000"></path>
            <path d="M250.666667,256 C241.834667,256 234.666667,248.832 234.666667,240 L234.666667,229.333333 C234.666667,214.634667 222.698667,202.666667 208,202.666667 L154.666667,202.666667 C139.968,202.666667 128,214.634667 128,229.333333 L128,240 C128,248.832 120.832,256 112,256 C103.168,256 96,248.832 96,240 L96,229.333333 C96,196.970667 122.304,170.666667 154.666667,170.666667 L208,170.666667 C240.362667,170.666667 266.666667,196.970667 266.666667,229.333333 L266.666667,240 C266.666667,248.832 259.498667,256 250.666667,256 Z" id="Path" fill="#000000"></path>
            <path d="M176,448 L58.6666667,448 C26.304,448 0,421.696 0,389.333333 L0,58.6666667 C0,26.304 26.304,0 58.6666667,0 L304,0 C336.362667,0 362.666667,26.304 362.666667,58.6666667 L362.666667,177.28 C362.666667,186.112 355.498667,193.28 346.666667,193.28 C337.834667,193.28 330.666667,186.112 330.666667,177.28 L330.666667,58.6666667 C330.666667,43.968 318.698667,32 304,32 L58.6666667,32 C43.968,32 32,43.968 32,58.6666667 L32,389.333333 C32,404.032 43.968,416 58.6666667,416 L176,416 C184.832,416 192,423.168 192,432 C192,440.832 184.832,448 176,448 Z" id="Path" fill="#000000"></path>
            <path d="M373.333333,512 C296.874667,512 234.666667,449.792 234.666667,373.333333 C234.666667,296.874667 296.874667,234.666667 373.333333,234.666667 C449.792,234.666667 512,296.874667 512,373.333333 C512,449.792 449.792,512 373.333333,512 Z M373.333333,266.666667 C314.517333,266.666667 266.666667,314.517333 266.666667,373.333333 C266.666667,432.149333 314.517333,480 373.333333,480 C432.149333,480 480,432.149333 480,373.333333 C480,314.517333 432.149333,266.666667 373.333333,266.666667 Z" id="Shape" fill="#000000"></path>
        </g>
    </g>
</svg>