<?xml version="1.0" encoding="UTF-8"?>
<svg width="512px" height="512px" viewBox="0 0 512 512" version="1.1" xmlns="http://www.w3.org/2000/svg" xmlns:xlink="http://www.w3.org/1999/xlink">
    <!-- Generator: Sketch 54 (76480) - https://sketchapp.com -->
    <title>verified</title>
    <desc>Created with Sketch.</desc>
    <g id="Page-1" stroke="none" stroke-width="1" fill="none" fill-rule="evenodd">
        <g id="verified" fill-rule="nonzero">
            <path d="M346.666667,73.7493333 C346.666667,43.9253333 322.709333,19.776 293.184,19.776 L69.4826667,19.776 C39.936,19.776 16,43.9466667 16,73.7493333 L16,378.026667 C16,407.850667 39.9573333,432 69.4826667,432 L307.754667,432 C329.237333,432 346.666667,414.421333 346.666667,392.746667 L346.666667,73.7493333 Z" id="Path" fill="#ECEFF1"></path>
            <circle id="Oval" fill="#90A4AE" cx="181.333333" cy="106.666667" r="38.4"></circle>
            <path d="M243.733333,251.733333 L118.933333,251.733333 C110.976,251.733333 104.533333,245.290667 104.533333,237.333333 L104.533333,227.733333 C104.533333,198.613333 128.213333,174.933333 157.333333,174.933333 L205.333333,174.933333 C234.453333,174.933333 258.133333,198.613333 258.133333,227.733333 L258.133333,237.333333 C258.133333,245.290667 251.690667,251.733333 243.733333,251.733333 Z" id="Path" fill="#90A4AE"></path>
            <path d="M373.333333,498.133333 C304.512,498.133333 248.533333,442.154667 248.533333,373.333333 C248.533333,304.512 304.512,248.533333 373.333333,248.533333 C442.154667,248.533333 498.133333,304.512 498.133333,373.333333 C498.133333,442.154667 442.154667,498.133333 373.333333,498.133333 Z" id="Path" fill="#FFFFFF"></path>
            <g id="magnifying-glass" transform="translate(307.000000, 307.000000)" fill="#30D523">
                <path d="M128.534369,111.722117 L105.064196,88.2894867 C104.945859,88.1710603 104.806484,88.0842143 104.682888,88 C102.57386,91.2448824 100.051967,94.3292312 97.206619,97.1767274 C94.3639011,100.024223 91.2766202,102.548021 88,104.663905 C88.1157073,104.784963 88.2024878,104.927075 88.3208248,105.04287 L111.743663,128.528133 C116.379843,133.15992 123.908707,133.154657 128.529109,128.528133 C133.154771,123.896347 133.157401,116.359167 128.534369,111.722117 Z" id="Path"></path>
                <path d="M93.9123364,16.0846545 C72.4607954,-5.36243338 37.5636783,-5.36243338 16.1094916,16.0899462 C-5.36586094,37.5370341 -5.36850666,72.4619737 16.0936172,93.9169991 C37.5557411,115.361441 72.4607954,115.361441 93.9123364,93.9143533 C115.363877,72.4619737 115.361232,37.5343883 93.9123364,16.0846545 Z M26.2055794,83.8152249 C10.3232903,67.9323149 10.3285817,42.0746304 26.2108709,26.2075954 C42.0931601,10.3273312 67.9339594,10.3273312 83.8109571,26.1996579 C99.6826633,42.0746304 99.6773719,67.9032108 83.8109571,83.8099333 C67.9313136,99.6425726 42.0931601,99.7007808 26.2055794,83.8152249 Z" id="Shape"></path>
                <path d="M37.3699787,59.5947102 C36.1848066,54.8679924 31.30437,48.3100626 27.1979233,50.3995224 C23.943403,52.0116149 24.8598286,59.404285 26.3943712,63.7762382 C33.2527822,83.6561038 58.1951458,87.8585003 60.7885496,85.3438447 C63.338954,82.8709261 42.0676677,78.3007221 37.3699787,59.5947102 Z" id="Path"></path>
            </g>
            <path d="M197.333333,320 L101.333333,320 C92.5013333,320 85.3333333,312.832 85.3333333,304 C85.3333333,295.168 92.5013333,288 101.333333,288 L197.333333,288 C206.165333,288 213.333333,295.168 213.333333,304 C213.333333,312.832 206.165333,320 197.333333,320 Z" id="Path" fill="#000000"></path>
            <path d="M176,384 L101.333333,384 C92.5013333,384 85.3333333,376.832 85.3333333,368 C85.3333333,359.168 92.5013333,352 101.333333,352 L176,352 C184.832,352 192,359.168 192,368 C192,376.832 184.832,384 176,384 Z" id="Path" fill="#000000"></path>
            <path d="M181.333333,149.333333 C157.802667,149.333333 138.666667,130.197333 138.666667,106.666667 C138.666667,83.136 157.802667,64 181.333333,64 C204.864,64 224,83.136 224,106.666667 C224,130.197333 204.864,149.333333 181.333333,149.333333 Z M181.333333,96 C175.445333,96 170.666667,100.778667 170.666667,106.666667 C170.666667,112.554667 175.445333,117.333333 181.333333,117.333333 C187.221333,117.333333 192,112.554667 192,106.666667 C192,100.778667 187.221333,96 181.333333,96 Z" id="Shape" fill="#000000"></path>
            <path d="M250.666667,256 C241.834667,256 234.666667,248.832 234.666667,240 L234.666667,229.333333 C234.666667,214.634667 222.698667,202.666667 208,202.666667 L154.666667,202.666667 C139.968,202.666667 128,214.634667 128,229.333333 L128,240 C128,248.832 120.832,256 112,256 C103.168,256 96,248.832 96,240 L96,229.333333 C96,196.970667 122.304,170.666667 154.666667,170.666667 L208,170.666667 C240.362667,170.666667 266.666667,196.970667 266.666667,229.333333 L266.666667,240 C266.666667,248.832 259.498667,256 250.666667,256 Z" id="Path" fill="#000000"></path>
            <path d="M176,448 L58.6666667,448 C26.304,448 0,421.696 0,389.333333 L0,58.6666667 C0,26.304 26.304,0 58.6666667,0 L304,0 C336.362667,0 362.666667,26.304 362.666667,58.6666667 L362.666667,177.28 C362.666667,186.112 355.498667,193.28 346.666667,193.28 C337.834667,193.28 330.666667,186.112 330.666667,177.28 L330.666667,58.6666667 C330.666667,43.968 318.698667,32 304,32 L58.6666667,32 C43.968,32 32,43.968 32,58.6666667 L32,389.333333 C32,404.032 43.968,416 58.6666667,416 L176,416 C184.832,416 192,423.168 192,432 C192,440.832 184.832,448 176,448 Z" id="Path" fill="#000000"></path>
            <path d="M373.333333,512 C296.874667,512 234.666667,449.792 234.666667,373.333333 C234.666667,296.874667 296.874667,234.666667 373.333333,234.666667 C449.792,234.666667 512,296.874667 512,373.333333 C512,449.792 449.792,512 373.333333,512 Z M373.333333,266.666667 C314.517333,266.666667 266.666667,314.517333 266.666667,373.333333 C266.666667,432.149333 314.517333,480 373.333333,480 C432.149333,480 480,432.149333 480,373.333333 C480,314.517333 432.149333,266.666667 373.333333,266.666667 Z" id="Shape" fill="#000000"></path>
        </g>
    </g>
</svg>